<?xml version="1.0" standalone="no"?>
<!DOCTYPE svg PUBLIC "-//W3C//DTD SVG 20010904//EN"
 "http://www.w3.org/TR/2001/REC-SVG-20010904/DTD/svg10.dtd">
<svg version="1.0" xmlns="http://www.w3.org/2000/svg"
 width="543.000000pt" height="600.000000pt" viewBox="0 0 543.000000 600.000000"
 preserveAspectRatio="xMidYMid meet">

<g transform="translate(0.000000,600.000000) scale(0.100000,-0.100000)"
fill="#000000" stroke="none">
<path d="M1500 5990 c0 -5 9 -14 20 -20 11 -6 18 -15 15 -20 -3 -5 3 -18 15
-30 11 -11 20 -24 20 -29 0 -5 7 -11 15 -15 8 -3 14 -9 13 -13 -4 -11 42 -83
53 -83 5 0 8 -3 7 -7 -4 -12 73 -123 85 -123 6 0 7 -3 4 -6 -4 -4 13 -34 37
-68 23 -34 76 -110 118 -171 41 -60 207 -303 368 -540 161 -236 316 -464 345
-505 29 -41 184 -268 345 -505 161 -236 351 -514 422 -617 l130 -188 955 0
c926 0 956 1 940 18 -10 10 -17 24 -17 30 0 7 -4 12 -10 12 -5 0 -10 7 -10 15
0 8 -4 15 -10 15 -5 0 -16 15 -25 34 -9 18 -25 43 -35 54 -11 12 -20 26 -20
32 0 5 -4 10 -9 10 -5 0 -19 20 -31 44 -11 24 -27 47 -35 50 -8 3 -15 10 -15
16 0 9 -340 510 -1433 2110 l-345 505 -956 3 c-613 1 -956 -1 -956 -8z"/>
<path d="M10 5294 c0 -3 190 -284 422 -623 232 -339 533 -778 668 -976 136
-198 290 -424 344 -502 l97 -143 512 1 c282 1 603 4 715 8 112 3 211 2 219 -3
23 -13 125 -164 -852 1264 -326 476 -610 891 -631 922 l-39 57 -727 1 c-401 0
-728 -3 -728 -6z"/>
<path d="M1504 2893 c-23 -32 -189 -274 -369 -538 -181 -264 -367 -536 -414
-605 -47 -69 -181 -264 -298 -435 -116 -170 -257 -376 -312 -457 -56 -80 -101
-148 -101 -150 0 -1 327 -5 728 -7 l727 -3 25 38 c14 22 172 253 351 514 545
796 1125 1643 1145 1674 16 25 16 28 2 20 -10 -5 -114 -6 -255 -3 -131 4 -452
7 -714 8 l-475 1 -40 -57z"/>
<path d="M3404 2793 c-59 -87 -122 -178 -139 -203 -18 -25 -66 -94 -107 -155
-185 -271 -640 -938 -689 -1010 -59 -85 -643 -941 -691 -1011 -15 -23 -28 -47
-28 -53 0 -6 -4 -11 -9 -11 -9 0 -81 -105 -81 -119 0 -5 -6 -11 -14 -14 -7 -3
-23 -26 -36 -51 -12 -25 -26 -46 -31 -46 -6 0 -8 -4 -4 -9 3 -6 0 -13 -7 -18
-7 -4 -20 -17 -28 -27 -13 -18 -13 -19 0 -12 8 4 3 -3 -12 -16 -16 -13 -28
-27 -28 -31 0 -4 429 -7 954 -7 l955 0 152 223 c84 122 312 456 507 742 196
286 388 567 427 625 40 58 215 314 389 570 174 256 325 476 336 490 11 14 26
37 32 53 7 15 16 27 20 27 5 0 8 5 8 10 0 6 9 20 20 32 10 11 26 36 35 54 9
19 20 34 25 34 6 0 10 7 10 15 0 8 5 15 11 15 5 0 7 5 4 10 -3 6 0 13 9 16 8
3 17 12 20 20 5 12 -128 14 -949 14 l-954 0 -107 -157z"/>
</g>
</svg>
